<?xml version="1.0" encoding="UTF-8" standalone="no"?>
<!DOCTYPE svg PUBLIC "-//W3C//DTD SVG 1.1//EN" "http://www.w3.org/Graphics/SVG/1.1/DTD/svg11.dtd">
<svg width="100%" height="100%" viewBox="0 0 2472 2472" version="1.1" xmlns="http://www.w3.org/2000/svg" xmlns:xlink="http://www.w3.org/1999/xlink" xml:space="preserve" xmlns:serif="http://www.serif.com/" style="fill-rule:evenodd;clip-rule:evenodd;stroke-linejoin:round;stroke-miterlimit:2;">
    <g id="BG">
        <rect x="0" y="0" width="2472" height="2472" style="fill:rgb(29,29,29);"/>
    </g>
    <g transform="matrix(93.9655,0,0,93.9655,108.414,108.414)">
        <g id="Food">
            <path d="M11,9L9,9L9,2L7,2L7,9L5,9L5,2L3,2L3,9C3,11.12 4.66,12.84 6.75,12.97L6.75,22L9.25,22L9.25,12.97C11.34,12.84 13,11.12 13,9L13,2L11,2L11,9ZM16,6L16,14L18.5,14L18.5,22L21,22L21,2C18.24,2 16,4.24 16,6Z" style="fill:url(#_Linear1);fill-rule:nonzero;"/>
        </g>
    </g>
    <defs>
        <linearGradient id="_Linear1" x1="0" y1="0" x2="1" y2="0" gradientUnits="userSpaceOnUse" gradientTransform="matrix(20.0249,0,0,16.1532,1.45368,11.2693)"><stop offset="0" style="stop-color:rgb(70,37,35);stop-opacity:1"/><stop offset="0.22" style="stop-color:rgb(203,155,81);stop-opacity:1"/><stop offset="0.45" style="stop-color:rgb(246,226,122);stop-opacity:1"/><stop offset="0.52" style="stop-color:rgb(246,242,192);stop-opacity:1"/><stop offset="0.58" style="stop-color:rgb(246,226,122);stop-opacity:1"/><stop offset="0.78" style="stop-color:rgb(203,155,81);stop-opacity:1"/><stop offset="1" style="stop-color:rgb(70,37,35);stop-opacity:1"/></linearGradient>
    </defs>
</svg>
