<?xml version="1.0" encoding="UTF-8" standalone="no"?>
<!DOCTYPE svg PUBLIC "-//W3C//DTD SVG 1.1//EN" "http://www.w3.org/Graphics/SVG/1.1/DTD/svg11.dtd">
<svg width="100%" height="100%" viewBox="0 0 2472 2472" version="1.1" xmlns="http://www.w3.org/2000/svg" xmlns:xlink="http://www.w3.org/1999/xlink" xml:space="preserve" xmlns:serif="http://www.serif.com/" style="fill-rule:evenodd;clip-rule:evenodd;stroke-linejoin:round;stroke-miterlimit:2;">
    <g id="BG">
        <rect x="0" y="0" width="2472" height="2472" style="fill:rgb(16,17,17);"/>
    </g>
    <g transform="matrix(93.9655,0,0,93.9655,108.414,202.379)">
        <g id="Form">
            <path d="M19,3L14.82,3C14.4,1.84 13.3,1 12,1C10.7,1 9.6,1.84 9.18,3L5,3C3.9,3 3,3.9 3,5L3,19C3,20.1 3.9,21 5,21L19,21C20.1,21 21,20.1 21,19L21,5C21,3.9 20.1,3 19,3ZM12,3C12.55,3 13,3.45 13,4C13,4.55 12.55,5 12,5C11.45,5 11,4.55 11,4C11,3.45 11.45,3 12,3ZM14,17L7,17L7,15L14,15L14,17ZM17,13L7,13L7,11L17,11L17,13ZM17,9L7,9L7,7L17,7L17,9Z" style="fill:url(#_Linear1);fill-rule:nonzero;"/>
        </g>
    </g>
    <defs>
        <linearGradient id="_Linear1" x1="0" y1="0" x2="1" y2="0" gradientUnits="userSpaceOnUse" gradientTransform="matrix(22.0056,0,0,17.7509,2,10.2693)"><stop offset="0" style="stop-color:rgb(70,37,35);stop-opacity:1"/><stop offset="0.22" style="stop-color:rgb(203,155,81);stop-opacity:1"/><stop offset="0.45" style="stop-color:rgb(246,226,122);stop-opacity:1"/><stop offset="0.5" style="stop-color:rgb(246,242,192);stop-opacity:1"/><stop offset="0.55" style="stop-color:rgb(246,226,122);stop-opacity:1"/><stop offset="0.78" style="stop-color:rgb(203,155,81);stop-opacity:1"/><stop offset="1" style="stop-color:rgb(70,37,35);stop-opacity:1"/></linearGradient>
    </defs>
</svg>
