<?xml version="1.0" encoding="UTF-8" standalone="no"?>
<!DOCTYPE svg PUBLIC "-//W3C//DTD SVG 1.1//EN" "http://www.w3.org/Graphics/SVG/1.1/DTD/svg11.dtd">
<svg width="100%" height="100%" viewBox="0 0 2472 2472" version="1.1" xmlns="http://www.w3.org/2000/svg" xmlns:xlink="http://www.w3.org/1999/xlink" xml:space="preserve" xmlns:serif="http://www.serif.com/" style="fill-rule:evenodd;clip-rule:evenodd;stroke-linejoin:round;stroke-miterlimit:2;">
    <g id="BG">
        <rect x="0" y="0" width="2472" height="2472" style="fill:rgb(16,17,17);"/>
    </g>
    <g id="Ebene1">
        <path d="M1689.64,1159.88C1689.64,1410.28 1486.41,1613.51 1236,1613.51C985.593,1613.51 782.363,1410.28 782.363,1159.88L600.909,1159.88C600.909,1480.14 837.707,1743.25 1145.27,1787.71L1145.27,2067.15L1326.73,2067.15L1326.73,1787.71C1634.29,1743.25 1871.09,1480.14 1871.09,1159.88L1689.64,1159.88ZM1236,1432.06C1386.61,1432.06 1508.18,1310.48 1508.18,1159.88L1508.18,615.513C1508.18,464.906 1386.61,343.331 1236,343.331C1085.39,343.331 963.818,464.906 963.818,615.513L963.818,1159.88C963.818,1310.48 1085.39,1432.06 1236,1432.06Z" style="fill:url(#_Linear1);fill-rule:nonzero;"/>
    </g>
    <defs>
        <linearGradient id="_Linear1" x1="0" y1="0" x2="1" y2="0" gradientUnits="userSpaceOnUse" gradientTransform="matrix(1577.99,3.1733,-3.12656,1554.75,473.977,1142.26)"><stop offset="0" style="stop-color:rgb(70,37,35);stop-opacity:1"/><stop offset="0.22" style="stop-color:rgb(203,155,81);stop-opacity:1"/><stop offset="0.43" style="stop-color:rgb(246,226,122);stop-opacity:1"/><stop offset="0.5" style="stop-color:rgb(246,242,192);stop-opacity:1"/><stop offset="0.59" style="stop-color:rgb(246,226,122);stop-opacity:1"/><stop offset="0.78" style="stop-color:rgb(203,155,81);stop-opacity:1"/><stop offset="1" style="stop-color:rgb(70,37,35);stop-opacity:1"/></linearGradient>
    </defs>
</svg>
