<?xml version="1.0" encoding="UTF-8" standalone="no"?>
<!DOCTYPE svg PUBLIC "-//W3C//DTD SVG 1.1//EN" "http://www.w3.org/Graphics/SVG/1.1/DTD/svg11.dtd">
<svg width="100%" height="100%" viewBox="0 0 2472 2472" version="1.1" xmlns="http://www.w3.org/2000/svg" xmlns:xlink="http://www.w3.org/1999/xlink" xml:space="preserve" xmlns:serif="http://www.serif.com/" style="fill-rule:evenodd;clip-rule:evenodd;stroke-linejoin:round;stroke-miterlimit:2;">
    <g id="BG">
        <rect x="0" y="0" width="2472" height="2472" style="fill:rgb(16,17,17);"/>
    </g>
    <g transform="matrix(84.7321,0,0,84.7321,154.395,203.044)">
        <g id="Party">
            <path d="M14.53,1.45L13.45,2.53L15.05,4.13C15.27,4.38 15.38,4.67 15.38,5C15.38,5.33 15.27,5.64 15.05,5.86L11.5,9.47L12.5,10.55L16.13,6.94C16.66,6.35 16.92,5.7 16.92,5C16.92,4.3 16.66,3.64 16.13,3.05L14.53,1.45M10.55,3.47L9.47,4.55L10.08,5.11C10.3,5.33 10.41,5.63 10.41,6C10.41,6.37 10.3,6.67 10.08,6.89L9.47,7.45L10.55,8.53L11.11,7.92C11.64,7.33 11.91,6.69 11.91,6C11.91,5.28 11.64,4.63 11.11,4.03L10.55,3.47M21,5.06C20.31,5.06 19.67,5.33 19.08,5.86L13.45,11.5L14.53,12.5L20.11,6.94C20.36,6.69 20.66,6.56 21,6.56C21.34,6.56 21.64,6.69 21.89,6.94L22.5,7.55L23.53,6.47L22.97,5.86C22.38,5.33 21.72,5.06 21,5.06M7,8L2,22L16,17L7,8M19,11.06C18.3,11.06 17.66,11.33 17.06,11.86L15.47,13.45L16.55,14.53L18.14,12.94C18.39,12.69 18.67,12.56 19,12.56C19.33,12.56 19.63,12.69 19.88,12.94L21.5,14.53L22.55,13.5L20.95,11.86C20.36,11.33 19.7,11.06 19,11.06Z" style="fill:url(#_Linear1);fill-rule:nonzero;"/>
        </g>
    </g>
    <defs>
        <linearGradient id="_Linear1" x1="0" y1="0" x2="1" y2="0" gradientUnits="userSpaceOnUse" gradientTransform="matrix(24.6384,0.0749019,-0.0519028,17.073,-0.134705,10.9742)"><stop offset="0" style="stop-color:rgb(70,37,35);stop-opacity:1"/><stop offset="0.22" style="stop-color:rgb(203,155,81);stop-opacity:1"/><stop offset="0.45" style="stop-color:rgb(246,226,122);stop-opacity:1"/><stop offset="0.5" style="stop-color:rgb(246,242,192);stop-opacity:1"/><stop offset="0.55" style="stop-color:rgb(246,226,122);stop-opacity:1"/><stop offset="0.78" style="stop-color:rgb(203,155,81);stop-opacity:1"/><stop offset="1" style="stop-color:rgb(70,37,35);stop-opacity:1"/></linearGradient>
    </defs>
</svg>
