<?xml version="1.0" encoding="UTF-8" standalone="no"?>
<!DOCTYPE svg PUBLIC "-//W3C//DTD SVG 1.1//EN" "http://www.w3.org/Graphics/SVG/1.1/DTD/svg11.dtd">
<svg width="100%" height="100%" viewBox="0 0 2472 2472" version="1.1" xmlns="http://www.w3.org/2000/svg" xmlns:xlink="http://www.w3.org/1999/xlink" xml:space="preserve" xmlns:serif="http://www.serif.com/" style="fill-rule:evenodd;clip-rule:evenodd;stroke-linejoin:round;stroke-miterlimit:2;">
    <g id="BG">
        <rect x="0" y="0" width="2472" height="2472" style="fill:rgb(16,17,17);"/>
    </g>
    <g transform="matrix(93.9655,0,0,93.9655,108.414,108.414)">
        <g id="Payment">
            <path d="M20,4L4,4C2.89,4 2.01,4.89 2.01,6L2,18C2,19.11 2.89,20 4,20L20,20C21.11,20 22,19.11 22,18L22,6C22,4.89 21.11,4 20,4ZM20,18L4,18L4,12L20,12L20,18ZM20,8L4,8L4,6L20,6L20,8Z" style="fill:url(#_Linear1);fill-rule:nonzero;"/>
        </g>
    </g>
    <g id="Ebene2">
    </g>
    <defs>
        <linearGradient id="_Linear1" x1="0" y1="0" x2="1" y2="0" gradientUnits="userSpaceOnUse" gradientTransform="matrix(21.9587,0,0,12.7534,2,11.4154)"><stop offset="0" style="stop-color:rgb(70,37,35);stop-opacity:1"/><stop offset="0.22" style="stop-color:rgb(203,155,81);stop-opacity:1"/><stop offset="0.39" style="stop-color:rgb(246,226,122);stop-opacity:1"/><stop offset="0.5" style="stop-color:rgb(246,242,192);stop-opacity:1"/><stop offset="0.55" style="stop-color:rgb(246,226,122);stop-opacity:1"/><stop offset="0.78" style="stop-color:rgb(203,155,81);stop-opacity:1"/><stop offset="1" style="stop-color:rgb(70,37,35);stop-opacity:1"/></linearGradient>
    </defs>
</svg>
