<?xml version="1.0" encoding="UTF-8" standalone="no"?>
<!DOCTYPE svg PUBLIC "-//W3C//DTD SVG 1.1//EN" "http://www.w3.org/Graphics/SVG/1.1/DTD/svg11.dtd">
<svg width="100%" height="100%" viewBox="0 0 2472 2472" version="1.1" xmlns="http://www.w3.org/2000/svg" xmlns:xlink="http://www.w3.org/1999/xlink" xml:space="preserve" xmlns:serif="http://www.serif.com/" style="fill-rule:evenodd;clip-rule:evenodd;stroke-linejoin:round;stroke-miterlimit:2;">
    <g id="BG">
        <rect x="0" y="0" width="2472" height="2472" style="fill:rgb(29,29,29);"/>
    </g>
    <g transform="matrix(0.999268,0,0,0.999268,13.046,-48.7334)">
        <g id="Champaign">
            <g>
                <path d="M828.122,1255.3C824.338,1253.74 821.166,1252.29 818.82,1251.19C824.829,1254.1 831.02,1256.35 837.246,1258.36C833.848,1257.31 830.415,1256.2 828.122,1255.3ZM858.447,2050.12L858.487,2050.13C858.487,2050.13 845.396,2047.18 827.297,2043.32C824.674,2042.24 822.522,2040.94 820.515,2039.39C820.287,2039.23 820.067,2039.03 819.841,2038.85C817.713,2037.12 815.616,2035.18 813.172,2032.75C809.743,2029.36 805.467,2025.18 799.224,2020.16C791.041,2013.56 789.773,2013.08 785.416,2011.43C784.868,2011.19 784.312,2010.98 783.64,2010.71C784.501,2005.45 784.062,2004.17 783.409,2002.07C782.722,1999.92 781.036,1996.61 780.208,1985.2C778.669,1965.28 779.731,1920.62 793.054,1814.29C797.042,1782.68 802.046,1745.58 808.461,1702.04C836.003,1515.11 857.215,1392.71 873.183,1337.11C875.713,1328.17 878.161,1320.92 880.508,1315.49C881.863,1312.26 883.414,1309.11 884.926,1305.94C893.299,1288.27 899.891,1273.61 902.997,1266.71C903.8,1264.94 904.102,1264.32 904.382,1263.28C904.382,1263.28 900.382,1264.02 895.29,1264.53C888.492,1265.28 880.436,1265.47 872.702,1265.17C866.42,1264.96 852.681,1263.14 847.925,1261.64C846.811,1261.27 844.871,1260.68 842.69,1260.02C863.819,1265.87 885.908,1266.78 907.391,1262.72C918.832,1260.55 930.102,1256.99 940.934,1252.15C951.637,1247.33 962.058,1241.29 972.146,1234.13C975.327,1231.83 978.519,1229.46 981.647,1226.95C983.45,1225.5 985.219,1224.01 986.985,1222.51C988.089,1221.55 989.193,1220.58 990.298,1219.61C995.729,1214.81 1001.01,1209.61 1006.17,1204.14C1012.23,1197.63 1018.09,1190.72 1023.78,1183.36C1035.53,1168.01 1046.34,1150.81 1056.02,1131.92C1074.41,1095.95 1088.63,1053.94 1097.12,1007.4C1098.21,1001.43 1099.22,995.394 1100.12,989.277C1100.49,986.78 1100.87,984.182 1101.23,981.475C1109.8,919.624 1119.96,805.199 1128.89,693.522C1137.71,582.891 1145.29,474.986 1148.81,423.513C1150.19,403.688 1150.92,392.215 1150.92,392.215C1149.44,392.017 1147.96,391.821 1146.45,391.598C1144.03,391.283 1141.62,390.927 1139.24,390.618C1135.06,390.025 1123.13,388.372 1118.96,387.778C1105.68,385.926 1100.15,385.194 1086.87,383.364C1073.43,381.508 1059.99,379.653 1046.58,377.825C1011.71,373.043 976.8,368.193 942.042,362.611C924.966,359.886 907.902,357.08 890.819,354.416C875.452,352.006 860.041,349.61 844.673,347.22C843.162,346.977 841.61,346.726 840.096,346.504C837.606,346.096 835.15,345.734 832.7,345.331C832.7,345.331 830.09,356.528 825.688,375.907C814.22,426.208 790.356,531.715 766.89,640.187C743.23,749.695 719.967,862.189 710.334,923.884C709.895,926.578 709.512,929.177 709.144,931.674C708.243,937.791 707.473,943.866 706.794,949.891C701.5,996.901 702.996,1041.23 710.269,1080.98C714.049,1101.85 719.442,1121.44 726.269,1139.53C729.587,1148.21 733.214,1156.52 737.139,1164.5C740.496,1171.23 744.055,1177.73 747.872,1183.9C749.12,1185.92 750.374,1187.9 751.635,1189.85C752.426,1191.01 753.21,1192.21 754.041,1193.38C762.126,1205.19 771.457,1216.22 781.984,1225.93C792.992,1236.06 805.364,1244.61 818.661,1251.13C816.159,1249.94 814.683,1249.18 814.683,1249.18C815.296,1250.99 815.219,1252.06 815.441,1253.98C816.438,1261.4 818.526,1277.3 821.44,1296.67C821.975,1300.14 822.56,1303.57 822.923,1307.05C823.6,1312.96 823.899,1320.57 823.817,1329.93C823.408,1387.78 809.31,1511.26 781.78,1698.11C775.359,1741.69 769.441,1778.74 764.05,1810.23C745.991,1915.77 733.642,1958.73 726.143,1977.28C721.86,1987.9 719.169,1990.55 717.891,1992.41C716.662,1994.24 715.913,1995.34 715.176,2000.62C714.457,2000.69 713.824,2000.72 713.269,2000.8C708.624,2001.12 707.229,2001.21 697.491,2005.17C690.105,2008.18 684.804,2010.95 680.543,2013.21C677.385,2014.92 674.701,2016.26 672.043,2017.27C671.953,2017.3 671.865,2017.35 671.775,2017.38C669.534,2018.26 667.202,2018.77 664.667,2019.09C644.06,2017.35 628.623,2016.26 628.623,2016.26L628.707,2016.27C577.208,2011.36 543.169,2010.82 542.44,2015.77L541.191,2024.25C539.647,2034.72 627.645,2056.38 737.769,2072.61C847.892,2088.83 938.4,2093.47 939.943,2082.99L941.191,2074.52C941.921,2069.57 909.172,2060.27 858.447,2050.12Z" style="fill:url(#_Linear1);fill-rule:nonzero;"/>
                <path d="M1498.52,1401.76C1494.43,1401.7 1490.94,1401.52 1488.36,1401.36C1495.02,1401.86 1501.6,1401.68 1508.13,1401.26C1504.58,1401.53 1500.98,1401.76 1498.52,1401.76ZM1818.6,2129.92L1818.64,2129.91C1818.64,2129.91 1805.38,2131.97 1787.13,2135.03C1784.3,2134.99 1781.82,2134.57 1779.38,2133.87C1779.11,2133.8 1778.83,2133.7 1778.56,2133.61C1775.94,2132.78 1773.28,2131.75 1770.11,2130.38C1765.68,2128.49 1760.16,2126.17 1752.51,2123.79C1742.48,2120.66 1741.12,2120.68 1736.47,2120.75C1735.87,2120.72 1735.27,2120.73 1734.55,2120.73C1733.42,2115.52 1732.54,2114.49 1731.16,2112.77C1729.73,2111.03 1726.95,2108.58 1721.99,2098.26C1713.24,2080.3 1697.83,2038.37 1671.17,1934.57C1663.28,1903.72 1654.31,1867.37 1644.29,1824.51C1601.26,1640.52 1576.04,1518.89 1570.48,1461.31C1569.54,1452.06 1569.16,1444.42 1569.35,1438.51C1569.42,1435.01 1569.71,1431.5 1569.95,1428.01C1571.25,1408.5 1572,1392.44 1572.35,1384.88C1572.45,1382.95 1572.5,1382.25 1572.38,1381.18C1572.38,1381.18 1568.93,1383.34 1564.38,1385.68C1558.34,1388.88 1550.91,1392.02 1543.61,1394.58C1537.69,1396.68 1524.24,1400.04 1519.27,1400.39C1518.1,1400.46 1516.07,1400.61 1513.8,1400.8C1535.6,1398.49 1556.48,1391.22 1574.97,1379.55C1584.82,1373.34 1593.99,1365.89 1602.29,1357.4C1610.48,1348.99 1617.95,1339.55 1624.7,1329.18C1626.82,1325.88 1628.92,1322.5 1630.91,1319.02C1632.05,1317.01 1633.15,1314.97 1634.24,1312.93C1634.91,1311.62 1635.59,1310.32 1636.26,1309.02C1639.55,1302.55 1642.55,1295.78 1645.34,1288.8C1648.58,1280.52 1651.5,1271.93 1654.09,1263C1659.38,1244.41 1663.12,1224.44 1665.19,1203.31C1669.08,1163.11 1666.88,1118.8 1657.68,1072.4C1656.5,1066.45 1655.23,1060.47 1653.82,1054.44C1653.25,1051.99 1652.65,1049.43 1651.99,1046.78C1637.24,986.103 1604.68,875.939 1571.98,768.785C1539.55,662.648 1506.97,559.498 1491.35,510.326C1485.35,491.382 1481.81,480.442 1481.81,480.442C1480.37,480.801 1478.92,481.16 1477.43,481.509C1475.06,482.105 1472.69,482.66 1470.36,483.248C1466.26,484.228 1454.56,487.071 1450.46,488.051C1437.43,491.204 1432.01,492.556 1418.99,495.729C1405.81,498.94 1392.62,502.15 1379.49,505.371C1345.29,513.73 1311.04,522.039 1276.66,529.611C1259.78,533.347 1242.88,537.003 1226.01,540.799C1210.83,544.201 1195.62,547.632 1180.44,551.052C1178.95,551.381 1177.42,551.718 1175.92,552.067C1173.46,552.601 1171.04,553.166 1168.61,553.691C1168.61,553.691 1170.3,565.064 1173.32,584.706C1181.12,635.705 1197.67,742.603 1215.68,852.114C1233.89,962.658 1253.56,1075.84 1267.26,1136.76C1267.84,1139.43 1268.43,1141.98 1269.01,1144.44C1270.42,1150.46 1271.93,1156.4 1273.51,1162.25C1285.85,1207.92 1303.53,1248.6 1324.88,1282.9C1336.07,1300.93 1348.28,1317.17 1361.27,1331.48C1367.54,1338.35 1373.97,1344.74 1380.55,1350.72C1386.14,1355.74 1391.84,1360.49 1397.65,1364.82C1399.56,1366.24 1401.45,1367.63 1403.34,1368.97C1404.5,1369.76 1405.67,1370.59 1406.87,1371.37C1418.73,1379.39 1431.46,1386.22 1444.82,1391.38C1458.78,1396.77 1473.42,1400.18 1488.19,1401.36C1485.42,1401.17 1483.77,1401.01 1483.77,1401.01C1485,1402.46 1485.33,1403.49 1486.24,1405.19C1489.89,1411.73 1497.67,1425.75 1507.5,1442.7C1509.27,1445.72 1511.07,1448.7 1512.69,1451.81C1515.49,1457.06 1518.56,1464.03 1521.92,1472.76C1542.78,1526.72 1575.01,1646.75 1618.03,1830.65C1628.06,1873.55 1636.16,1910.18 1642.71,1941.45C1664.67,2046.25 1668.96,2090.74 1668.79,2110.75C1668.71,2122.2 1667.18,2125.66 1666.67,2127.86C1666.2,2130.01 1665.91,2131.3 1667.17,2136.49C1666.52,2136.81 1665.94,2137.07 1665.46,2137.36C1661.25,2139.36 1659.99,2139.96 1652.38,2147.21C1646.62,2152.73 1642.71,2157.25 1639.57,2160.91C1637.26,2163.67 1635.26,2165.89 1633.16,2167.81C1633.08,2167.87 1633.02,2167.95 1632.95,2168.01C1631.19,2169.65 1629.21,2170.99 1626.96,2172.21C1607.16,2178.16 1592.4,2182.82 1592.4,2182.82L1592.48,2182.8C1542.78,2197.14 1510.92,2209.14 1512.06,2214.01L1514.01,2222.35C1516.42,2232.66 1606.23,2220.5 1714.61,2195.15C1823,2169.8 1908.89,2140.88 1906.48,2130.56L1904.53,2122.23C1903.39,2117.36 1869.51,2120.73 1818.6,2129.92Z" style="fill:url(#_Linear2);fill-rule:nonzero;"/>
            </g>
        </g>
    </g>
    <defs>
        <linearGradient id="_Linear1" x1="0" y1="0" x2="1" y2="0" gradientUnits="userSpaceOnUse" gradientTransform="matrix(1365.36,0,0,1365.36,541.171,1216.96)"><stop offset="0" style="stop-color:rgb(70,37,35);stop-opacity:1"/><stop offset="0.22" style="stop-color:rgb(203,155,81);stop-opacity:1"/><stop offset="0.45" style="stop-color:rgb(246,226,122);stop-opacity:1"/><stop offset="0.5" style="stop-color:rgb(246,242,192);stop-opacity:1"/><stop offset="0.55" style="stop-color:rgb(246,226,122);stop-opacity:1"/><stop offset="0.78" style="stop-color:rgb(203,155,81);stop-opacity:1"/><stop offset="1" style="stop-color:rgb(70,37,35);stop-opacity:1"/></linearGradient>
        <linearGradient id="_Linear2" x1="0" y1="0" x2="1" y2="0" gradientUnits="userSpaceOnUse" gradientTransform="matrix(1365.36,0,0,1365.36,541.171,1216.96)"><stop offset="0" style="stop-color:rgb(70,37,35);stop-opacity:1"/><stop offset="0.22" style="stop-color:rgb(203,155,81);stop-opacity:1"/><stop offset="0.45" style="stop-color:rgb(246,226,122);stop-opacity:1"/><stop offset="0.5" style="stop-color:rgb(246,242,192);stop-opacity:1"/><stop offset="0.55" style="stop-color:rgb(246,226,122);stop-opacity:1"/><stop offset="0.78" style="stop-color:rgb(203,155,81);stop-opacity:1"/><stop offset="1" style="stop-color:rgb(70,37,35);stop-opacity:1"/></linearGradient>
    </defs>
</svg>
