<?xml version="1.0" encoding="UTF-8" standalone="no"?>
<!DOCTYPE svg PUBLIC "-//W3C//DTD SVG 1.1//EN" "http://www.w3.org/Graphics/SVG/1.1/DTD/svg11.dtd">
<svg width="100%" height="100%" viewBox="0 0 2472 2472" version="1.1" xmlns="http://www.w3.org/2000/svg" xmlns:xlink="http://www.w3.org/1999/xlink" xml:space="preserve" xmlns:serif="http://www.serif.com/" style="fill-rule:evenodd;clip-rule:evenodd;stroke-linejoin:round;stroke-miterlimit:2;">
    <g id="BG">
        <rect x="0" y="0" width="2472" height="2472" style="fill:rgb(16,17,17);"/>
    </g>
    <g transform="matrix(85.4232,0,0,85.4232,210.922,210.922)">
        <g id="Ebene2">
            <path d="M17,1L7,1C5.9,1 5,1.9 5,3L5,21C5,22.1 5.9,23 7,23L17,23C18.1,23 19,22.1 19,21L19,3C19,1.9 18.1,1 17,1ZM7,18L7,6L17,6L17,18L7,18ZM16,11L16,9.14C16,8.51 15.55,8 15,8L9,8C8.45,8 8,8.51 8,9.14L8,11.1C8.55,11.1 9,11.55 9,12.1C9,12.65 8.55,13.1 8,13.1L8,14.86C8,15.49 8.45,16 9,16L15,16C15.55,16 16,15.49 16,14.86L16,13C15.45,13 15,12.55 15,12C15,11.45 15.45,11 16,11ZM12.5,14.5L11.5,14.5L11.5,13.5L12.5,13.5L12.5,14.5ZM12.5,12.5L11.5,12.5L11.5,11.5L12.5,11.5L12.5,12.5ZM12.5,10.5L11.5,10.5L11.5,9.5L12.5,9.5L12.5,10.5Z" style="fill:url(#_Linear1);fill-rule:nonzero;"/>
        </g>
    </g>
    <defs>
        <linearGradient id="_Linear1" x1="0" y1="0" x2="1" y2="0" gradientUnits="userSpaceOnUse" gradientTransform="matrix(15.4488,0,0,17.6246,4.55422,11.1962)"><stop offset="0" style="stop-color:rgb(70,37,35);stop-opacity:1"/><stop offset="0.22" style="stop-color:rgb(203,155,81);stop-opacity:1"/><stop offset="0.41" style="stop-color:rgb(246,226,122);stop-opacity:1"/><stop offset="0.48" style="stop-color:rgb(246,242,192);stop-opacity:1"/><stop offset="0.6" style="stop-color:rgb(246,226,122);stop-opacity:1"/><stop offset="0.78" style="stop-color:rgb(203,155,81);stop-opacity:1"/><stop offset="1" style="stop-color:rgb(70,37,35);stop-opacity:1"/></linearGradient>
    </defs>
</svg>
